# xmcd CD database file
#
# Track frame offsets:
#	150
#	13750
#	26887
#	37877
#	50515
#	65707
#	78762
#	92032
#	106270
#	120950
#	137280
#	153272
#	169432
#	180912
#	194785
#	210512
#	226012
#	246865
#	261100
#	276757
#
# Disc length: 4249 seconds
#
# Revision: 1
# Processed by: cddbd v1.5.1PL0 Copyright (c) Steve Scherf et al.
# Submitted via: CDex 1.51
#
DISCID=05109714
DTITLE=Big Bill Broonzy - The Chronological Big Bill Broonzy 1949 - 1951
DYEAR=2003
DGENRE=Blues
TTITLE0=I Love My Whiskey
TTITLE1=You've Been Mistreating Me
TTITLE2=I Stay Blue All The Time
TTITLE3=Water Coast Blues
TTITLE4=Five Feet Seven
TTITLE5=I Wonder
TTITLE6=Keep Your Hands Off Her
TTITLE7=Mindin' My Own Bisiness
TTITLE8=House Rent Stomp
TTITLE9=In The Evening
TTITLE10=The Moppin' Blues
TTITLE11=Hey, Hey, Baby
TTITLE12=Willie Mae Blues
TTITLE13=Black, Brown And White
TTITLE14=Back Water Blues (Big Bill Blues)
TTITLE15=Low Down Blues (Lonesome Road Blues)
TTITLE16=Feelin' Low Down
TTITLE17=What I Used To Do
TTITLE18=Make My Get Away
TTITLE19=Hollerin'And Cryin' The Blues
EXTD=YEAR: 2003
EXTT0=
EXTT1=
EXTT2=
EXTT3=
EXTT4=
EXTT5=
EXTT6=
EXTT7=
EXTT8=
EXTT9=
EXTT10=
EXTT11=
EXTT12=
EXTT13=
EXTT14=
EXTT15=
EXTT16=
EXTT17=
EXTT18=
EXTT19=
PLAYORDER=
